<mxfile host="65bd71144e">
    <diagram id="15CszqfjbI2vZNp4aqPR" name="Page-1">
        <mxGraphModel dx="1067" dy="787" grid="1" gridSize="10" guides="1" tooltips="1" connect="1" arrows="1" fold="1" page="1" pageScale="1" pageWidth="850" pageHeight="1100" math="0" shadow="0">
            <root>
                <mxCell id="0"/>
                <mxCell id="1" parent="0"/>
                <mxCell id="2" value="Registro Administrador" style="shape=umlFrame;whiteSpace=wrap;html=1;width=120;height=30;boundedLbl=1;verticalAlign=middle;align=left;spacingLeft=5;fillColor=default;" parent="1" vertex="1">
                    <mxGeometry x="85" y="30" width="680" height="1030" as="geometry"/>
                </mxCell>
                <mxCell id="5" value="" style="ellipse;html=1;shape=endState;strokeColor=#000000;fillColor=#040405;" parent="1" vertex="1">
                    <mxGeometry x="175" y="475" width="30" height="30" as="geometry"/>
                </mxCell>
                <mxCell id="6" value="ref" style="shape=umlFrame;whiteSpace=wrap;html=1;width=120;height=30;boundedLbl=1;verticalAlign=middle;align=left;spacingLeft=5;" parent="1" vertex="1">
                    <mxGeometry x="335" y="450" width="180" height="70" as="geometry"/>
                </mxCell>
                <mxCell id="7" value="busqueda en base de datos" style="text;html=1;strokeColor=none;fillColor=none;align=center;verticalAlign=middle;whiteSpace=wrap;rounded=0;" parent="1" vertex="1">
                    <mxGeometry x="345" y="485" width="160" height="30" as="geometry"/>
                </mxCell>
                <mxCell id="8" value="info valida" style="edgeStyle=none;html=1;exitX=0.5;exitY=1;exitDx=0;exitDy=0;" parent="1" source="10" target="6" edge="1">
                    <mxGeometry relative="1" as="geometry"/>
                </mxCell>
                <mxCell id="9" value="info incorrecta" style="edgeStyle=none;html=1;exitX=0;exitY=0.5;exitDx=0;exitDy=0;" parent="1" source="10" target="14" edge="1">
                    <mxGeometry relative="1" as="geometry"/>
                </mxCell>
                <mxCell id="10" value="" style="rhombus;strokeColor=#005700;fillColor=none;fontColor=#ffffff;" parent="1" vertex="1">
                    <mxGeometry x="410" y="370" width="30" height="30" as="geometry"/>
                </mxCell>
                <mxCell id="11" value="ref" style="shape=umlFrame;whiteSpace=wrap;html=1;width=120;height=30;boundedLbl=1;verticalAlign=middle;align=left;spacingLeft=5;" parent="1" vertex="1">
                    <mxGeometry x="335" y="245" width="180" height="70" as="geometry"/>
                </mxCell>
                <mxCell id="12" value="recepcion en el controlador" style="text;html=1;strokeColor=none;fillColor=none;align=center;verticalAlign=middle;whiteSpace=wrap;rounded=0;" parent="1" vertex="1">
                    <mxGeometry x="345" y="280" width="160" height="30" as="geometry"/>
                </mxCell>
                <mxCell id="13" value="" style="endArrow=classic;html=1;exitX=0.492;exitY=1.027;exitDx=0;exitDy=0;exitPerimeter=0;" parent="1" source="11" target="10" edge="1">
                    <mxGeometry width="50" height="50" relative="1" as="geometry">
                        <mxPoint x="495" y="335" as="sourcePoint"/>
                        <mxPoint x="495" y="395" as="targetPoint"/>
                    </mxGeometry>
                </mxCell>
                <mxCell id="14" value="ref" style="shape=umlFrame;whiteSpace=wrap;html=1;width=120;height=30;boundedLbl=1;verticalAlign=middle;align=left;spacingLeft=5;" parent="1" vertex="1">
                    <mxGeometry x="105" y="350" width="180" height="70" as="geometry"/>
                </mxCell>
                <mxCell id="15" value="" style="endArrow=classic;html=1;exitX=0.471;exitY=1.02;exitDx=0;exitDy=0;exitPerimeter=0;entryX=0.5;entryY=0;entryDx=0;entryDy=0;" parent="1" source="14" target="5" edge="1">
                    <mxGeometry width="50" height="50" relative="1" as="geometry">
                        <mxPoint x="405" y="460" as="sourcePoint"/>
                        <mxPoint x="455" y="410" as="targetPoint"/>
                    </mxGeometry>
                </mxCell>
                <mxCell id="16" value="mensaje de error a la vista" style="text;html=1;strokeColor=none;fillColor=none;align=center;verticalAlign=middle;whiteSpace=wrap;rounded=0;" parent="1" vertex="1">
                    <mxGeometry x="115" y="386" width="160" height="30" as="geometry"/>
                </mxCell>
                <mxCell id="17" value="ref" style="shape=umlFrame;whiteSpace=wrap;html=1;width=120;height=30;boundedLbl=1;verticalAlign=middle;align=left;spacingLeft=5;" parent="1" vertex="1">
                    <mxGeometry x="565" y="560" width="180" height="70" as="geometry"/>
                </mxCell>
                <mxCell id="18" value="mensaje de error en vista" style="text;html=1;strokeColor=none;fillColor=none;align=center;verticalAlign=middle;whiteSpace=wrap;rounded=0;" parent="1" vertex="1">
                    <mxGeometry x="575" y="595" width="160" height="30" as="geometry"/>
                </mxCell>
                <mxCell id="19" value="usuario nuevo" style="edgeStyle=none;html=1;exitX=0.5;exitY=1;exitDx=0;exitDy=0;" parent="1" source="20" target="23" edge="1">
                    <mxGeometry relative="1" as="geometry"/>
                </mxCell>
                <mxCell id="20" value="" style="rhombus;strokeColor=#005700;fillColor=none;fontColor=#ffffff;" parent="1" vertex="1">
                    <mxGeometry x="410" y="580" width="30" height="30" as="geometry"/>
                </mxCell>
                <mxCell id="21" value="" style="endArrow=classic;html=1;entryX=0.5;entryY=0;entryDx=0;entryDy=0;exitX=0.495;exitY=1.026;exitDx=0;exitDy=0;exitPerimeter=0;" parent="1" source="6" target="20" edge="1">
                    <mxGeometry width="50" height="50" relative="1" as="geometry">
                        <mxPoint x="355" y="580" as="sourcePoint"/>
                        <mxPoint x="405" y="530" as="targetPoint"/>
                    </mxGeometry>
                </mxCell>
                <mxCell id="22" value="usuario&lt;br&gt;igual" style="endArrow=classic;html=1;exitX=1;exitY=0.5;exitDx=0;exitDy=0;" parent="1" source="20" target="17" edge="1">
                    <mxGeometry width="50" height="50" relative="1" as="geometry">
                        <mxPoint x="355" y="580" as="sourcePoint"/>
                        <mxPoint x="405" y="530" as="targetPoint"/>
                    </mxGeometry>
                </mxCell>
                <mxCell id="23" value="ref" style="shape=umlFrame;whiteSpace=wrap;html=1;width=120;height=30;boundedLbl=1;verticalAlign=middle;align=left;spacingLeft=5;" parent="1" vertex="1">
                    <mxGeometry x="335" y="690" width="180" height="70" as="geometry"/>
                </mxCell>
                <mxCell id="24" value="registro base de datos" style="text;html=1;strokeColor=none;fillColor=none;align=center;verticalAlign=middle;whiteSpace=wrap;rounded=0;" parent="1" vertex="1">
                    <mxGeometry x="345" y="725" width="160" height="30" as="geometry"/>
                </mxCell>
                <mxCell id="25" value="" style="ellipse;html=1;shape=endState;strokeColor=#000000;fillColor=#040405;" parent="1" vertex="1">
                    <mxGeometry x="640" y="678" width="30" height="30" as="geometry"/>
                </mxCell>
                <mxCell id="26" value="" style="endArrow=classic;html=1;exitX=0.489;exitY=1.052;exitDx=0;exitDy=0;exitPerimeter=0;" parent="1" source="23" target="31" edge="1">
                    <mxGeometry width="50" height="50" relative="1" as="geometry">
                        <mxPoint x="515" y="650" as="sourcePoint"/>
                        <mxPoint x="423" y="811" as="targetPoint"/>
                    </mxGeometry>
                </mxCell>
                <mxCell id="27" value="" style="endArrow=classic;html=1;exitX=0.507;exitY=1.018;exitDx=0;exitDy=0;exitPerimeter=0;" parent="1" source="17" target="25" edge="1">
                    <mxGeometry width="50" height="50" relative="1" as="geometry">
                        <mxPoint x="652.3" y="633.01" as="sourcePoint"/>
                        <mxPoint x="655" y="670" as="targetPoint"/>
                    </mxGeometry>
                </mxCell>
                <mxCell id="28" value="ref" style="shape=umlFrame;whiteSpace=wrap;html=1;width=120;height=30;boundedLbl=1;verticalAlign=middle;align=left;spacingLeft=5;" parent="1" vertex="1">
                    <mxGeometry x="565" y="790" width="180" height="70" as="geometry"/>
                </mxCell>
                <mxCell id="29" value="mensaje de error en vista" style="text;html=1;strokeColor=none;fillColor=none;align=center;verticalAlign=middle;whiteSpace=wrap;rounded=0;" parent="1" vertex="1">
                    <mxGeometry x="575" y="825" width="160" height="30" as="geometry"/>
                </mxCell>
                <mxCell id="30" value="registro correcto" style="edgeStyle=none;html=1;exitX=0.5;exitY=1;exitDx=0;exitDy=0;" parent="1" source="31" target="33" edge="1">
                    <mxGeometry relative="1" as="geometry"/>
                </mxCell>
                <mxCell id="31" value="" style="rhombus;strokeColor=#005700;fillColor=none;fontColor=#ffffff;" parent="1" vertex="1">
                    <mxGeometry x="408" y="810" width="30" height="30" as="geometry"/>
                </mxCell>
                <mxCell id="32" value="error en&lt;br&gt;registro" style="endArrow=classic;html=1;exitX=1;exitY=0.5;exitDx=0;exitDy=0;" parent="1" source="31" target="28" edge="1">
                    <mxGeometry width="50" height="50" relative="1" as="geometry">
                        <mxPoint x="353" y="850" as="sourcePoint"/>
                        <mxPoint x="403" y="800" as="targetPoint"/>
                    </mxGeometry>
                </mxCell>
                <mxCell id="33" value="ref" style="shape=umlFrame;whiteSpace=wrap;html=1;width=120;height=30;boundedLbl=1;verticalAlign=middle;align=left;spacingLeft=5;" parent="1" vertex="1">
                    <mxGeometry x="333" y="910" width="180" height="70" as="geometry"/>
                </mxCell>
                <mxCell id="34" value="mensaje de exito a usuario" style="text;html=1;strokeColor=none;fillColor=none;align=center;verticalAlign=middle;whiteSpace=wrap;rounded=0;" parent="1" vertex="1">
                    <mxGeometry x="343" y="945" width="160" height="30" as="geometry"/>
                </mxCell>
                <mxCell id="35" value="" style="ellipse;html=1;shape=endState;strokeColor=#000000;fillColor=#040405;" parent="1" vertex="1">
                    <mxGeometry x="640" y="900" width="30" height="30" as="geometry"/>
                </mxCell>
                <mxCell id="36" value="" style="endArrow=classic;html=1;entryX=0.5;entryY=0;entryDx=0;entryDy=0;exitX=0.503;exitY=0.991;exitDx=0;exitDy=0;exitPerimeter=0;" parent="1" source="28" target="35" edge="1">
                    <mxGeometry width="50" height="50" relative="1" as="geometry">
                        <mxPoint x="625" y="930" as="sourcePoint"/>
                        <mxPoint x="675" y="880" as="targetPoint"/>
                    </mxGeometry>
                </mxCell>
                <mxCell id="37" value="" style="ellipse;html=1;shape=endState;strokeColor=#000000;fillColor=#040405;" parent="1" vertex="1">
                    <mxGeometry x="408" y="1010" width="30" height="30" as="geometry"/>
                </mxCell>
                <mxCell id="38" value="" style="endArrow=classic;html=1;entryX=0.475;entryY=-0.057;entryDx=0;entryDy=0;entryPerimeter=0;exitX=0.497;exitY=0.995;exitDx=0;exitDy=0;exitPerimeter=0;" parent="1" source="33" target="37" edge="1">
                    <mxGeometry width="50" height="50" relative="1" as="geometry">
                        <mxPoint x="425" y="1020" as="sourcePoint"/>
                        <mxPoint x="475" y="970" as="targetPoint"/>
                    </mxGeometry>
                </mxCell>
                <mxCell id="43" style="edgeStyle=none;html=1;exitX=0.5;exitY=1;exitDx=0;exitDy=0;entryX=0.491;entryY=-0.013;entryDx=0;entryDy=0;entryPerimeter=0;" parent="1" source="39" target="40" edge="1">
                    <mxGeometry relative="1" as="geometry"/>
                </mxCell>
                <mxCell id="39" value="" style="ellipse;strokeColor=none;fillColor=#000000;" parent="1" vertex="1">
                    <mxGeometry x="408" y="85" width="30" height="30" as="geometry"/>
                </mxCell>
                <mxCell id="40" value="ref" style="shape=umlFrame;whiteSpace=wrap;html=1;width=120;height=30;boundedLbl=1;verticalAlign=middle;align=left;spacingLeft=5;" parent="1" vertex="1">
                    <mxGeometry x="335" y="140" width="180" height="70" as="geometry"/>
                </mxCell>
                <mxCell id="41" value="formulario de registro" style="text;html=1;strokeColor=none;fillColor=none;align=center;verticalAlign=middle;whiteSpace=wrap;rounded=0;" parent="1" vertex="1">
                    <mxGeometry x="345" y="175" width="160" height="30" as="geometry"/>
                </mxCell>
                <mxCell id="44" value="" style="endArrow=classic;html=1;exitX=0.499;exitY=1.006;exitDx=0;exitDy=0;exitPerimeter=0;" parent="1" source="40" target="11" edge="1">
                    <mxGeometry width="50" height="50" relative="1" as="geometry">
                        <mxPoint x="420" y="240" as="sourcePoint"/>
                        <mxPoint x="470" y="190" as="targetPoint"/>
                    </mxGeometry>
                </mxCell>
                <mxCell id="45" value="&lt;span style=&quot;color: rgb(0, 0, 0);&quot;&gt;session como administrador&lt;/span&gt;" style="text;html=1;strokeColor=none;fillColor=none;align=center;verticalAlign=middle;whiteSpace=wrap;rounded=0;fontColor=#FFFFFF;" vertex="1" parent="1">
                    <mxGeometry x="340" y="59" width="170" height="30" as="geometry"/>
                </mxCell>
            </root>
        </mxGraphModel>
    </diagram>
</mxfile>